<?xml version="1.0" encoding="UTF-8"?><svg xmlns="http://www.w3.org/2000/svg" xmlns:xlink="http://www.w3.org/1999/xlink" height="350.0" preserveAspectRatio="xMidYMid meet" version="1.0" viewBox="41.9 -0.0 266.2 350.0" width="266.2" zoomAndPan="magnify"><g id="change1_1"><path d="m175 171.17c38.914 0 70.463-38.318 70.463-85.586 0-47.269-10.358-85.587-70.463-85.587s-70.465 38.318-70.465 85.587c0 47.268 31.549 85.586 70.465 85.586z" fill="inherit"/></g><g id="change1_2"><path d="m41.909 301.85c-0.012-2.882-0.024-0.812 0 0z" fill="inherit"/></g><g id="change1_3"><path d="m308.08 304.1c0.038-0.789 0.013-5.474 0 0z" fill="inherit"/></g><g id="change1_4"><path d="m307.94 298.4c-1.305-82.342-12.059-105.8-94.352-120.66 0 0-11.584 14.761-38.584 14.761s-38.586-14.761-38.586-14.761c-81.395 14.69-92.803 37.805-94.303 117.98-0.123 6.547-0.18 6.891-0.202 6.131 5e-3 1.424 0.011 4.058 0.011 8.651 0 0 19.592 39.496 133.08 39.496 113.49 0 133.08-39.496 133.08-39.496 0-2.951 2e-3 -5.003 5e-3 -6.399-0.022 0.47-0.066-0.441-0.149-5.708z" fill="inherit"/></g></svg>