<?xml version="1.0" ?><svg style="enable-background:new 0 0 256 256;" version="1.1" viewBox="0 0 256 256" xml:space="preserve" xmlns="http://www.w3.org/2000/svg" xmlns:xlink="http://www.w3.org/1999/xlink"><style type="text/css">
	.st0{fill:#D5E2EB;}
	.st1{fill:none;stroke:#00A388;stroke-width:4;stroke-miterlimit:10;}
	.st2{fill:#FFFFFF;}
	.st3{fill:#CC4E47;}
	.st4{fill:#EA685E;}
	.st5{fill:#4B687F;}
	.st6{fill:#2C3E50;}
	.st7{fill:#3E5063;}
	.st8{fill:#FFAB80;}
	.st9{filter:url(#Adobe_OpacityMaskFilter);}
	.st10{mask:url(#SVGID_2_);}
	.st11{fill:#F09A79;}
	.st12{fill:#00886F;}
	.st13{fill:#00A388;}
	.st14{fill:none;stroke:#3E5063;stroke-width:4;stroke-miterlimit:10;}
	.st15{fill:#FFD766;}
	.st16{fill:#5488B7;}
	.st17{fill:#8C623B;}
	.st18{fill:#E6E6E6;stroke:#3E5063;stroke-width:16;stroke-miterlimit:10;}
	.st19{opacity:0.6;}
	.st20{fill:#E6E6E6;}
	.st21{fill:none;stroke:#D5E2EB;stroke-width:5;stroke-miterlimit:10;}
	.st22{fill:#FFEC9F;}
	.st23{fill:#603813;}
	.st24{filter:url(#Adobe_OpacityMaskFilter_1_);}
	.st25{mask:url(#SVGID_1_);}
</style><g id="Layer_2"><circle class="st0" cx="128" cy="128" r="120"/></g><g id="Layer_1"><g><g><path class="st5" d="M180.32634,172.6539c0,0.39134,0,0.78287-0.01451,1.17439     c-0.28992,13.54289-5.68385,26.62186-15.25395,36.46738c-1.58044,1.63832-4.26289,0.02902-3.6395-2.16048     c1.84152-6.51045,2.29109-13.282,1.37741-19.89388c-0.28992-2.13162-0.72499-4.24855-1.30484-6.33664v-0.04353     c-1.49355-5.36491-3.91492-10.52698-7.24997-15.21042l23.79427-9.55542c1.07298,3.58162,1.76912,7.22112,2.07356,10.8461v0.04337     c0.07257,0.78305,0.13045,1.55141,0.15948,2.33447C180.31183,171.10229,180.32634,171.87083,180.32634,172.6539z"/></g><g><ellipse class="st5" cx="128" cy="117.53318" rx="72.5" ry="72.5" transform="matrix(0.70711 -0.70711 0.70711 0.70711 -45.61818 124.93434)"/></g><g><g><path class="st6" d="M118.4353,140.7403c0.04068-5.96532,0.8761-10.25194,2.50314-12.85992      c1.62705-2.60641,5.02663-5.89178,10.20033-9.85614c3.00378-2.50314,5.38177-5.1205,7.13397-7.85361      c1.7522-2.73155,2.62828-5.8511,2.62828-9.35551c0-3.87988-0.99187-6.89304-2.97246-9.04263      c-1.98219-2.148-4.89209-3.2228-8.72975-3.2228c-3.17116,0-5.81041,0.89801-7.91619,2.69088      c-2.10735,1.79444-3.18213,4.50567-3.22281,8.13524H99.72427c0.08291-8.34331,2.8051-14.62151,8.16651-18.83619      c5.35986-4.21311,12.46252-6.32044,21.30802-6.32044c9.55264,0,16.93694,2.32635,22.15288,6.97752      c5.21436,4.65273,7.82231,11.12961,7.82231,19.43066c0,5.38177-1.52377,10.2848-4.56824,14.70599      c-3.04602,4.42275-6.96814,8.19781-11.76479,11.32674c-2.62831,2.00251-4.31793,3.96435-5.06886,5.88239      c-0.75095,1.9196-1.12642,4.65273-1.12642,8.1978L118.4353,140.7403z M136.77083,166.64787H118.3727v-15.64468h18.39812      V166.64787z"/></g></g><g><g><path class="st2" d="M116.9853,137.84032c0.04068-5.96532,0.87611-10.25195,2.50314-12.85992      c1.62705-2.60641,5.02663-5.89178,10.20033-9.85614c3.00378-2.50314,5.38177-5.1205,7.13397-7.85361      c1.7522-2.73155,2.6283-5.8511,2.6283-9.35552c0-3.87988-0.99188-6.89304-2.97247-9.04262      c-1.98219-2.148-4.89209-3.2228-8.72973-3.2228c-3.17118,0-5.81043,0.89801-7.9162,2.69088      c-2.10735,1.79444-3.18213,4.50567-3.22281,8.13524H98.27428c0.08292-8.34332,2.80511-14.62151,8.16651-18.83619      c5.35986-4.21311,12.46253-6.32044,21.30804-6.32044c9.55264,0,16.93691,2.32635,22.15285,6.97752      c5.21437,4.65272,7.82233,11.12961,7.82233,19.43066c0,5.38177-1.52379,10.2848-4.56825,14.70599      c-3.04601,4.42275-6.96814,8.19781-11.76479,11.32674c-2.62831,2.00252-4.31793,3.96436-5.06886,5.88239      c-0.75095,1.9196-1.12642,4.65274-1.12642,8.1978h-18.2104V137.84032z M135.32085,163.74788h-18.39814v-15.64467h18.39814      V163.74788z"/></g></g><g><path class="st6" d="M180.32634,172.6539c0,0.39134,0,0.78287-0.01451,1.17439     c-4.63991,4.32095-11.62897,10.67195-17.51604,14.41302c-0.28992-2.13162-0.72499-4.24855-1.30484-6.33664v-0.04353     c6.39433-3.33488,12.39751-7.68486,17.77693-13.06445c0.28993-0.28993,0.56534-0.56535,0.84093-0.85527v0.04337     c0.07257,0.78305,0.13045,1.55141,0.15948,2.33447C180.31183,171.10229,180.32634,171.87083,180.32634,172.6539z"/></g></g></g></svg>